<?xml version="1.0" encoding="UTF-8"?>
<svg version="1.1" viewBox="0 0 1024 1024" width="1024" height="1024" xmlns="http://www.w3.org/2000/svg">
<path transform="translate(903,276)" d="m0 0h1l-1 69-3 17-6 22-10 24-8 16-10 16-10 14-9 11-12 13-18 18-11 9-14 11-18 12-21 12-19 9-25 9-19 5-15 3-20 2h-27l-26-3-30-7-27-9-20-9-19-10-12-8v1l20 20 11 9 13 10 15 9 17 9 24 9 19 5 22 3h40l24-4 21-5 21-8 24-11 18-11 16-11 16-13 10-9 9-9 9-11 11-14 12-19 12-23 9-23 7-23 6-27 2-8h1v66l-3 20-5 21-8 21-9 19-11 18-10 13-9 11-14 15-10 9-14 11-13 9-20 12-23 11-22 8-24 6-17 3-10 1h-36l-23-3-22-5-20-7-16-7-15-8-17-11-16-12-16-15-10-10-7-8-8-8-7-8-14-15-7-7-6-7-4-3v-2l-4-2-8-8-8-7-15-12-14-10-20-12-17-8-20-7-15-4-20-3-23-1-27 2-15 3-20 6-16 7-17 9-17 12-10 8-12 11-10 11-7 9h-1v-38l11-12 7-8 15-14 18-13 15-9 19-9 24-8 19-4 19-2h29l25 3 17 4 21 7 20 9 16 9 18 12 14 11 13 11 15 13 17 13 19 12 19 10 19 8 18 6 26 6 17 2h41l25-3 25-6 27-9 26-12 18-10 14-9 18-13 16-13 13-12 8-8 9-11 12-15 10-15 14-24 13-27 10-26 9-27 3-12z" fill="#FEFEFE"/>
<path transform="translate(251,521)" d="m0 0h25l18 2 23 5 16 5 20 8 21 11 14 9 19 14 14 12 10 9 12 11 20 20 7 8 14 15 11 12 5 5 5 4 15 15 11 9 9 8 17 12 15 9 23 12 19 8 19 6 17 4 22 3h28l27-4 23-6 21-8 20-10 19-12 14-11 12-11 15-15 11-15 9-14 9-17 8-20 5-15 6-25 3-15h1v66l-3 21-5 19-6 15-10 19-12 17-12 14-16 16-11 9-13 10-19 12-19 9-22 8-19 5-22 3h-40l-21-3-25-6-25-9-29-14-22-13-16-12-14-11-14-12-13-12-18-18-7-8-12-12-7-8-13-13-7-8-24-22-14-11-16-11-15-9-21-11-20-8-25-7-23-3h-32l-22 3-21 6-18 8-15 9-12 9-14 12-10 11-7 9h-1v-36l10-13 18-18 16-12 16-9 15-7 15-5 22-5z" fill="#FEFEFE"/>
<path transform="translate(261,458)" d="m0 0h23l19 2 22 5 24 8 16 8 16 9 16 11 14 11 14 12 42 42 7 8 9 9 7 8 13 13 8 7 14 12 16 12 19 12 16 8 21 9 24 7 14 3 17 2h38l27-4 24-6 21-8 19-9 16-10 15-11 11-9 8-8h2l2-4 8-8 13-17 10-15 10-18 10-23 9-29 7-33h1v65l-2 17-5 22-5 15-7 16-10 18-10 14-9 11-12 13-12 11-14 11-15 10-18 10-14 7-28 10-21 5-20 3-13 1h-23l-25-3-25-6-20-7-20-9-18-10-21-14-13-10-13-11-12-11-30-30-7-8-10-10-7-8-16-16-8-7-13-11-19-14-20-12-23-12-18-7-23-6-21-3h-37l-24 4-24 8-16 8-11 6-11 8-9 7-13 12-11 12-5 8h-1v-39l7-9 11-12 11-10 19-13 13-8 19-9 18-6 18-4 12-2z" fill="#FEFEFE"/>
<path transform="translate(245,586)" d="m0 0h25l22 3 26 6 21 8 16 8 15 8 15 10 19 14 10 9 8 7 17 17 7 8 10 11 9 11 14 15 11 12 22 22 11 9 17 13 15 9 10 5 9 4-3 1-27-9-25-12-17-10-18-13-13-11-11-9-17-16-13-12-8-7-13-11-17-13-15-10-15-9-21-11-23-9-23-6-22-3h-35l-20 3-21 6-18 8-15 8-17 12-10 9h-2l-2 4-11 11h-1v-34l8-10 9-10 11-10 17-12 19-10 19-7 23-5z" fill="#FEFEFE"/>
<path transform="translate(574,796)" d="m0 0 2 1z" fill="#FEFEFE"/>
</svg>
